# ProBuilder 5.1.0
# https://unity3d.com/unity/features/worldbuilding/probuilder
# 7/3/2023 5:40:41 PM

mtllib ./TreePlate.mtl
o TreePlate

g TreePlate
v -25 -12.5 25
v -20 -12.5 25
v -25 -12.5 -25
v -20 -12.5 -25
v -24.69221 -8.589137 -25
v -24.69221 -8.589137 25
v -19.75377 -9.371309 -25
v -19.75377 -9.371309 25
v -23.77641 -4.774574 -25
v -23.77641 -4.774574 25
v -19.02113 -6.319659 -25
v -19.02113 -6.319659 25
v -22.27516 -1.150237 -25
v -22.27516 -1.150237 25
v -17.82013 -3.420189 -25
v -17.82013 -3.420189 25
v -20.22543 2.194633 -25
v -20.22543 2.194633 25
v -16.18034 -0.7442942 -25
v -16.18034 -0.7442942 25
v -17.67767 5.17767 -25
v -17.67767 5.17767 25
v -14.14214 1.642137 -25
v -14.14214 1.642137 25
v -14.69463 7.725427 -25
v -14.69463 7.725427 25
v -11.75571 3.680341 -25
v -11.75571 3.680341 25
v -11.34976 9.775165 -25
v -11.34976 9.775165 25
v -9.07981 5.320132 -25
v -9.07981 5.320132 25
v -7.725424 11.27641 -25
v -7.725424 11.27641 25
v -6.180339 6.521132 -25
v -6.180339 6.521132 25
v -3.910862 12.19221 -25
v -3.910862 12.19221 25
v -3.12869 7.253768 -25
v -3.12869 7.253768 25
v 1.092785E-06 12.5 -25
v 1.092785E-06 12.5 25
v 8.742278E-07 7.500001 -25
v 8.742278E-07 7.500001 25
v 3.910861 12.19221 -25
v 3.910861 12.19221 25
v 3.128689 7.253768 -25
v 3.128689 7.253768 25
v 7.725424 11.27641 -25
v 7.725424 11.27641 25
v 6.180339 6.521132 -25
v 6.180339 6.521132 25
v 11.34976 9.775167 -25
v 11.34976 9.775167 25
v 9.079808 5.320132 -25
v 9.079808 5.320132 25
v 14.69463 7.725427 -25
v 14.69463 7.725427 25
v 11.7557 3.680341 -25
v 11.7557 3.680341 25
v 17.67767 5.17767 -25
v 17.67767 5.17767 25
v 14.14214 1.642137 -25
v 14.14214 1.642137 25
v 20.22543 2.194631 -25
v 20.22543 2.194631 25
v 16.18034 -0.7442951 -25
v 16.18034 -0.7442951 25
v 22.27516 -1.150234 -25
v 22.27516 -1.150234 25
v 17.82013 -3.420188 -25
v 17.82013 -3.420188 25
v 23.77641 -4.774573 -25
v 23.77641 -4.774573 25
v 19.02113 -6.319658 -25
v 19.02113 -6.319658 25
v 24.69221 -8.589138 -25
v 24.69221 -8.589138 25
v 19.75377 -9.37131 -25
v 19.75377 -9.37131 25
v 25 -12.5 -25
v 25 -12.5 25
v 20 -12.5 -25
v 20 -12.5 25

vt -25 25
vt -20 25
vt -25 -25
vt -20 -25
vt -25 -14.42294
vt -25 -10.49998
vt 25 -14.42294
vt 25 -10.49998
vt 25 -10.89228
vt 25 -14.03065
vt -25 -10.89228
vt -25 -14.03065
vt -25 -14.1161
vt -25 -10.19315
vt 25 -14.1161
vt 25 -10.19315
vt 25 -10.58544
vt 25 -13.7238
vt -25 -10.58544
vt -25 -13.7238
vt -25 -13.50997
vt -25 -9.587016
vt 25 -13.50997
vt 25 -9.587016
vt 25 -9.979314
vt 25 -13.11768
vt -25 -9.979314
vt -25 -13.11768
vt -25 -12.61948
vt -25 -8.69652
vt 25 -12.61948
vt 25 -8.69652
vt 25 -9.088824
vt 25 -12.22719
vt -25 -9.088824
vt -25 -12.22719
vt -25 -11.46655
vt -25 -7.543599
vt 25 -11.46655
vt 25 -7.543599
vt 25 -7.935892
vt 25 -11.07426
vt -25 -7.935892
vt -25 -11.07426
vt 10.07957 -25
vt 6.156618 -25
vt 10.07957 25
vt 6.156618 25
vt -6.548917 -25
vt -9.687281 -25
vt -6.548917 25
vt -9.687281 25
vt 8.492713 -25
vt 4.569757 -25
vt 8.492713 25
vt 4.569757 25
vt -4.962048 -25
vt -8.100412 -25
vt -4.962048 25
vt -8.100412 25
vt 6.745023 -25
vt 2.822067 -25
vt 6.745023 25
vt 2.822067 25
vt -3.21436 -25
vt -6.352725 -25
vt -3.21436 25
vt -6.352725 25
vt 4.87954 -25
vt 0.9565867 -25
vt 4.87954 25
vt 0.9565867 25
vt -1.348887 -25
vt -4.48725 -25
vt -1.348887 25
vt -4.48725 25
vt 2.942219 -25
vt -0.9807372 -25
vt 2.942219 25
vt -0.9807372 25
vt 0.5884434 -25
vt -2.549922 -25
vt 0.5884434 25
vt -2.549922 25
vt 0.9807358 -25
vt -2.942218 -25
vt 0.9807358 25
vt -2.942218 25
vt 2.54992 -25
vt -0.5884423 -25
vt 2.54992 25
vt -0.5884423 25
vt -0.9565863 -25
vt -4.87954 -25
vt -0.9565863 25
vt -4.87954 25
vt 4.48725 -25
vt 1.348887 -25
vt 4.48725 25
vt 1.348887 25
vt -2.82207 -25
vt -6.745022 -25
vt -2.82207 25
vt -6.745022 25
vt 6.352721 -25
vt 3.214358 -25
vt 6.352721 25
vt 3.214358 25
vt -4.569748 -25
vt -8.492704 -25
vt -4.569748 25
vt -8.492704 25
vt 8.100411 -25
vt 4.962046 -25
vt 8.100411 25
vt 4.962046 25
vt -6.156622 -25
vt -10.07958 -25
vt -6.156622 25
vt -10.07958 25
vt 9.687284 -25
vt 6.54892 -25
vt 9.687284 25
vt 6.54892 25
vt 20 25
vt 25 25
vt 20 -25
vt 25 -25
vt -25 -12.5
vt -24.69221 -8.589137
vt -20 -12.5
vt -19.75377 -9.371309
vt 24.69221 -8.589137
vt 25 -12.5
vt 19.75377 -9.371309
vt 20 -12.5
vt -23.77641 -4.774574
vt -19.02113 -6.319659
vt 23.77641 -4.774574
vt 19.02113 -6.319659
vt -22.27516 -1.150237
vt -17.82013 -3.420189
vt 22.27516 -1.150237
vt 17.82013 -3.420189
vt -20.22543 2.194633
vt -16.18034 -0.7442942
vt 20.22543 2.194633
vt 16.18034 -0.7442942
vt -17.67767 5.17767
vt -14.14214 1.642137
vt 17.67767 5.17767
vt 14.14214 1.642137
vt -14.69463 7.725427
vt -11.75571 3.680341
vt 14.69463 7.725427
vt 11.75571 3.680341
vt -11.34976 9.775165
vt -9.07981 5.320132
vt 11.34976 9.775165
vt 9.07981 5.320132
vt -7.725424 11.27641
vt -6.180339 6.521132
vt 7.725424 11.27641
vt 6.180339 6.521132
vt -3.910862 12.19221
vt -3.12869 7.253768
vt 3.910862 12.19221
vt 3.12869 7.253768
vt 1.092785E-06 12.5
vt 8.742278E-07 7.500001
vt 25 -12.5
vt 20 -12.5
vt -25 -12.5
vt -20 -12.5

vn 0 -1 0
vn -0.9969174 0.07845891 0
vn -0.9876883 0.1564345 0
vn 0.9876884 -0.1564343 0
vn 0.9969174 -0.07845902 0
vn -0.9510565 0.3090171 0
vn 0.9510565 -0.3090169 0
vn -0.8910066 0.4539904 0
vn 0.8910064 -0.4539907 0
vn -0.8090171 0.5877852 0
vn 0.8090169 -0.5877854 0
vn -0.7071068 0.7071067 0
vn 0.7071068 -0.7071067 0
vn -0.5877853 0.8090169 0
vn 0.5877854 -0.8090169 0
vn -0.4539903 0.8910066 0
vn 0.4539906 -0.8910065 0
vn -0.309017 0.9510565 0
vn 0.3090169 -0.9510565 0
vn -0.1564345 0.9876883 0
vn 0.1564343 -0.9876884 0
vn 3.363128E-08 1 0
vn 0.1564345 0.9876883 0
vn -0.1564343 -0.9876884 0
vn 0.3090169 0.9510566 0
vn -0.3090169 -0.9510565 0
vn 0.4539904 0.8910066 0
vn -0.4539907 -0.8910064 0
vn 0.5877853 0.809017 0
vn -0.5877852 -0.8090171 0
vn 0.7071068 0.7071068 0
vn -0.7071066 -0.7071069 0
vn 0.8090171 0.5877852 0
vn -0.8090171 -0.5877852 0
vn 0.8910065 0.4539906 0
vn -0.8910066 -0.4539903 0
vn 0.9510565 0.3090171 0
vn -0.9510565 -0.3090172 0
vn 0.9876884 0.1564344 0
vn -0.9723698 -0.2334455 0
vn 0.9969174 0.07845889 0
vn -0.9969174 -0.07845899 0
vn 0 0 1
vn 0 0 -1

usemtl ProBuilderDefault
f 3/3/1 4/4/1 2/2/1 1/1/1
f 1/7/2 6/8/3 5/6/3 3/5/2
f 8/11/4 2/12/5 4/10/5 7/9/4
f 6/15/3 10/16/6 9/14/6 5/13/3
f 12/19/7 8/20/4 7/18/4 11/17/7
f 10/23/6 14/24/8 13/22/8 9/21/6
f 16/27/9 12/28/7 11/26/7 15/25/9
f 14/31/8 18/32/10 17/30/10 13/29/8
f 20/35/11 16/36/9 15/34/9 19/33/11
f 18/39/10 22/40/12 21/38/12 17/37/10
f 24/43/13 20/44/11 19/42/11 23/41/13
f 22/47/12 26/48/14 25/46/14 21/45/12
f 28/51/15 24/52/13 23/50/13 27/49/15
f 26/55/14 30/56/16 29/54/16 25/53/14
f 32/59/17 28/60/15 27/58/15 31/57/17
f 30/63/16 34/64/18 33/62/18 29/61/16
f 36/67/19 32/68/17 31/66/17 35/65/19
f 34/71/18 38/72/20 37/70/20 33/69/18
f 40/75/21 36/76/19 35/74/19 39/73/21
f 38/79/20 42/80/22 41/78/22 37/77/20
f 44/83/1 40/84/21 39/82/21 43/81/1
f 42/87/22 46/88/23 45/86/23 41/85/22
f 48/91/24 44/92/1 43/90/1 47/89/24
f 46/95/23 50/96/25 49/94/25 45/93/23
f 52/99/26 48/100/24 47/98/24 51/97/26
f 50/103/25 54/104/27 53/102/27 49/101/25
f 56/107/28 52/108/26 51/106/26 55/105/28
f 54/111/27 58/112/29 57/110/29 53/109/27
f 60/115/30 56/116/28 55/114/28 59/113/30
f 58/119/29 62/120/31 61/118/31 57/117/29
f 64/123/32 60/124/30 59/122/30 63/121/32
f 62/38/31 66/37/33 65/39/33 61/40/31
f 68/42/34 64/41/32 63/43/32 67/44/34
f 66/30/33 70/29/35 69/31/35 65/32/33
f 72/34/36 68/33/34 67/35/34 71/36/36
f 70/22/35 74/21/37 73/23/37 69/24/35
f 76/26/38 72/25/36 71/27/36 75/28/38
f 74/14/37 78/13/39 77/15/39 73/16/37
f 80/18/40 76/17/38 75/19/38 79/20/40
f 78/6/39 82/5/41 81/7/41 77/8/39
f 84/10/42 80/9/42 79/11/42 83/12/42
f 83/127/1 81/128/1 82/126/1 84/125/1
f 2/131/43 8/132/43 6/130/43 1/129/43
f 7/135/44 4/136/44 3/134/44 5/133/44
f 8/132/43 12/138/43 10/137/43 6/130/43
f 11/140/44 7/135/44 5/133/44 9/139/44
f 12/138/43 16/142/43 14/141/43 10/137/43
f 15/144/44 11/140/44 9/139/44 13/143/44
f 16/142/43 20/146/43 18/145/43 14/141/43
f 19/148/44 15/144/44 13/143/44 17/147/44
f 20/146/43 24/150/43 22/149/43 18/145/43
f 23/152/44 19/148/44 17/147/44 21/151/44
f 24/150/43 28/154/43 26/153/43 22/149/43
f 27/156/44 23/152/44 21/151/44 25/155/44
f 28/154/43 32/158/43 30/157/43 26/153/43
f 31/160/44 27/156/44 25/155/44 29/159/44
f 32/158/43 36/162/43 34/161/43 30/157/43
f 35/164/44 31/160/44 29/159/44 33/163/44
f 36/162/43 40/166/43 38/165/43 34/161/43
f 39/168/44 35/164/44 33/163/44 37/167/44
f 40/166/43 44/170/43 42/169/43 38/165/43
f 43/170/44 39/168/44 37/167/44 41/169/44
f 44/170/43 48/168/43 46/167/43 42/169/43
f 47/166/44 43/170/44 41/169/44 45/165/44
f 48/168/43 52/164/43 50/163/43 46/167/43
f 51/162/44 47/166/44 45/165/44 49/161/44
f 52/164/43 56/160/43 54/159/43 50/163/43
f 55/158/44 51/162/44 49/161/44 53/157/44
f 56/160/43 60/156/43 58/155/43 54/159/43
f 59/154/44 55/158/44 53/157/44 57/153/44
f 60/156/43 64/152/43 62/151/43 58/155/43
f 63/150/44 59/154/44 57/153/44 61/149/44
f 64/152/43 68/148/43 66/147/43 62/151/43
f 67/146/44 63/150/44 61/149/44 65/145/44
f 68/148/43 72/144/43 70/143/43 66/147/43
f 71/142/44 67/146/44 65/145/44 69/141/44
f 72/144/43 76/140/43 74/139/43 70/143/43
f 75/138/44 71/142/44 69/141/44 73/137/44
f 76/140/43 80/135/43 78/133/43 74/139/43
f 79/132/44 75/138/44 73/137/44 77/130/44
f 80/135/43 84/172/43 82/171/43 78/133/43
f 83/174/44 79/132/44 77/130/44 81/173/44

